<?xml version="1.0" encoding="utf-8"?>
<!-- Generator: Adobe Illustrator 25.2.0, SVG Export Plug-In . SVG Version: 6.00 Build 0)  -->
<svg version="1.1" id="Layer_1" xmlns="http://www.w3.org/2000/svg" xmlns:xlink="http://www.w3.org/1999/xlink" x="0px" y="0px"
	 viewBox="0 0 6 6" style="enable-background:new 0 0 6 6;" xml:space="preserve">
<style type="text/css">
	.st0{fill:none;}
	.st1{fill:#3A3A3A;}
</style>
<g>
	<path class="st0" d="M0,6V0h6v6H0z"/>
	<g>
		<path class="st1" d="M2.8,0.8c-0.1,0-0.2,0-0.3,0.1C2.5,0.9,2.4,1,2.4,1.1v0.2H1.3v0.4h0.2v3c0,0.3,0.3,0.6,0.6,0.6h2.2
			c0.3,0,0.6-0.3,0.6-0.6v-3h0.2V1.3H3.9V1.1c0-0.1,0-0.2-0.1-0.3S3.7,0.8,3.6,0.8H2.8z M2.8,1.1h0.8v0.2H2.8V1.1z M1.9,1.7h2.6v3
			c0,0.1-0.1,0.2-0.2,0.2H2.1C2,4.9,1.9,4.8,1.9,4.7V1.7z M2.2,2.2v2.1h0.4V2.2H2.2z M3,2.2v2.1h0.4V2.2H3z M3.8,2.2v2.1h0.4V2.2
			H3.8z"/>
	</g>
</g>
</svg>
